<svg width="53" height="689" viewBox="0 0 53 689" fill="none" xmlns="http://www.w3.org/2000/svg">
<path d="M39.75 689L39.75 679.6C39.75 668.55 32.95 662.55 21.3 662.55C9.65 662.55 3.1 668.55 3.1 679.85L3.1 689L39.75 689ZM35.95 684.35L6.9 684.35L6.9 680.2C6.9 671.6 12 667.3 21.3 667.3C30.6 667.3 35.95 671.6 35.95 680.2L35.95 684.35Z" fill="#A0A0A0"/>
<path d="M39.75 649.976L39.75 645.426L12.6 645.426L12.6 649.976L39.75 649.976ZM7 647.676C7 645.926 5.85 644.626 3.95 644.626C2.2 644.626 1.05 645.926 1.05 647.676C1.05 649.476 2.2 650.726 3.95 650.726C5.85 650.726 7 649.476 7 647.676Z" fill="#A0A0A0"/>
<path d="M52.25 622.057C52.25 613.707 47.95 608.357 42.9 608.357C38.4 608.357 36.45 611.507 36.45 617.807L36.45 623.107C36.45 626.757 35.2 627.907 33.45 627.907C32 627.907 31.05 627.107 30.25 626.157C30.85 624.907 31.15 623.407 31.15 622.107C31.15 616.557 27.55 612.157 21.75 612.157C19.4 612.157 17.4 613.057 16.15 614.357L16.15 608.807L12.6 608.807L12.6 618.257C12.25 619.207 11.95 620.557 11.95 622.107C11.95 627.607 15.65 632.307 21.65 632.307C24.9 632.307 27.5 630.507 28.95 628.707L29.15 628.707C30.15 630.157 31.9 631.757 34.15 631.757C36.3 631.757 37.75 630.707 38.65 629.307L38.85 629.307C40.45 631.807 42.7 633.307 45 633.307C49.65 633.307 52.25 628.707 52.25 622.057ZM28.1 622.107C28.1 625.257 25.55 627.907 21.65 627.907C17.6 627.907 15.25 625.307 15.25 622.107C15.25 618.907 17.65 616.307 21.65 616.307C25.55 616.307 28.1 618.957 28.1 622.107ZM49.15 621.457C49.15 626.357 47.3 629.307 44.35 629.307C42.8 629.307 41.15 628.507 39.75 626.557C40.1 625.307 40.2 624.057 40.2 623.007L40.2 618.307C40.2 614.757 41.05 612.807 43.6 612.807C46.4 612.807 49.15 616.207 49.15 621.457Z" fill="#A0A0A0"/>
<path d="M39.75 597.984L39.75 593.434L12.6 593.434L12.6 597.984L39.75 597.984ZM6.99999 595.684C6.99999 593.934 5.84999 592.634 3.94999 592.634C2.19999 592.634 1.04999 593.934 1.04999 595.684C1.04999 597.484 2.19999 598.734 3.94999 598.734C5.84999 598.734 6.99999 597.484 6.99999 595.684Z" fill="#A0A0A0"/>
<path d="M40.45 570.714C40.45 569.014 39.95 567.214 39.4 565.714L36 566.614C36.35 567.464 36.75 568.714 36.75 569.664C36.75 572.814 34.8 573.864 31.5 573.864L16.3 573.864L16.3 566.514L12.6 566.514L12.6 573.864L4.94999 573.864L4.94999 577.714L12.6 578.214L12.9 582.464L16.3 582.464L16.3 578.414L31.4 578.414C36.8 578.414 40.45 576.514 40.45 570.714Z" fill="#A0A0A0"/>
<path d="M40.45 550.484C40.45 547.134 38.7 544.084 36.55 541.534L36.55 541.334L39.75 540.934L39.75 537.184L23.1 537.184C16.35 537.184 11.95 539.984 11.95 546.634C11.95 550.984 13.85 554.784 15.45 557.284L18.65 555.484C17.2 553.384 15.7 550.534 15.7 547.334C15.7 542.884 19.05 541.784 22.55 541.784C23.85 553.334 26.8 558.434 32.7 558.434C37.6 558.434 40.45 555.034 40.45 550.484ZM36.75 549.234C36.75 551.884 35.5 553.984 32.4 553.984C28.9 553.984 26.65 550.934 25.6 541.784L33.15 541.784C35.5 544.384 36.75 546.584 36.75 549.234Z" fill="#A0A0A0"/>
<path d="M40.45 518.76C40.45 517.51 40.25 516.81 40.05 516.16L36.55 516.76C36.65 517.31 36.65 517.51 36.65 517.71C36.65 518.41 36.1 519.01 34.65 519.01L-7.43049e-06 519.01L-7.23161e-06 523.56L34.35 523.56C38.25 523.56 40.45 522.21 40.45 518.76Z" fill="#A0A0A0"/>
<path d="M40.45 473.92C40.45 469.17 38.55 465.62 35.15 462.72L32.25 465.22C34.85 467.57 36.35 470.27 36.35 473.72C36.35 480.72 30.6 485.12 21.35 485.12C12.2 485.12 6.49999 480.52 6.49999 473.57C6.49999 470.47 7.89999 468.02 9.94999 466.12L6.94999 463.57C4.59999 465.72 2.44999 469.17 2.44999 473.62C2.44999 482.92 9.64999 489.87 21.45 489.87C33.35 489.87 40.45 483.07 40.45 473.92Z" fill="#A0A0A0"/>
<path d="M39.75 451.285L39.75 446.735L22.35 446.735C17.7 444.935 16.05 442.135 16.05 439.885C16.05 438.785 16.2 438.185 16.5 437.235L12.5 436.385C12.1 437.285 11.95 438.085 11.95 439.285C11.95 442.335 14.1 445.135 17.55 446.985L17.55 447.135L12.6 447.585L12.6 451.285L39.75 451.285Z" fill="#A0A0A0"/>
<path d="M40.45 416.634C40.45 412.934 39.2 410.084 37.65 407.684L34.6 409.334C35.95 411.334 36.8 413.484 36.8 416.084C36.8 421.284 33.05 424.784 27.3 425.134L27.3 406.834C26.6 406.684 25.65 406.634 24.7 406.634C16.9 406.634 11.95 410.534 11.95 417.434C11.95 423.684 17.4 429.634 26.25 429.634C35.15 429.634 40.45 423.884 40.45 416.634ZM24 425.184C18.65 424.584 15.6 421.184 15.6 417.384C15.6 413.084 18.55 410.634 24 410.634L24 425.184Z" fill="#A0A0A0"/>
<path d="M40.45 389.576C40.45 386.226 38.7 383.176 36.55 380.626L36.55 380.426L39.75 380.026L39.75 376.276L23.1 376.276C16.35 376.276 11.95 379.076 11.95 385.726C11.95 390.076 13.85 393.876 15.45 396.376L18.65 394.576C17.2 392.476 15.7 389.626 15.7 386.426C15.7 381.976 19.05 380.876 22.55 380.876C23.85 392.426 26.8 397.526 32.7 397.526C37.6 397.526 40.45 394.126 40.45 389.576ZM36.75 388.326C36.75 390.976 35.5 393.076 32.4 393.076C28.9 393.076 26.65 390.026 25.6 380.876L33.15 380.876C35.5 383.476 36.75 385.676 36.75 388.326Z" fill="#A0A0A0"/>
<path d="M40.45 355.031C40.45 353.331 39.95 351.531 39.4 350.031L36 350.931C36.35 351.781 36.75 353.031 36.75 353.981C36.75 357.131 34.8 358.181 31.5 358.181L16.3 358.181L16.3 350.831L12.6 350.831L12.6 358.181L4.94998 358.181L4.94998 362.031L12.6 362.531L12.9 366.781L16.3 366.781L16.3 362.731L31.4 362.731C36.8 362.731 40.45 360.831 40.45 355.031Z" fill="#A0A0A0"/>
<path d="M39.75 339.683L39.75 335.133L12.6 335.133L12.6 339.683L39.75 339.683ZM6.99998 337.383C6.99998 335.633 5.84998 334.333 3.94998 334.333C2.19998 334.333 1.04998 335.633 1.04998 337.383C1.04998 339.183 2.19998 340.433 3.94998 340.433C5.84998 340.433 6.99998 339.183 6.99998 337.383Z" fill="#A0A0A0"/>
<path d="M39.75 315.064L39.75 309.764L12.6 300.164L12.6 304.614L28.1 309.814C30.75 310.614 33.5 311.464 36.05 312.314L36.05 312.514C33.5 313.364 30.75 314.214 28.1 315.014L12.6 320.164L12.6 324.864L39.75 315.064Z" fill="#A0A0A0"/>
<path d="M40.45 279.231C40.45 275.531 39.2 272.681 37.65 270.281L34.6 271.931C35.95 273.931 36.8 276.081 36.8 278.681C36.8 283.881 33.05 287.381 27.3 287.731L27.3 269.431C26.6 269.281 25.65 269.231 24.7 269.231C16.9 269.231 11.95 273.131 11.95 280.031C11.95 286.281 17.4 292.231 26.25 292.231C35.15 292.231 40.45 286.481 40.45 279.231ZM24 287.781C18.65 287.181 15.6 283.781 15.6 279.981C15.6 275.681 18.55 273.231 24 273.231L24 287.781Z" fill="#A0A0A0"/>
<path d="M40.45 230.664C40.45 227.414 39.15 224.264 37 221.864L33.95 223.814C35.45 225.514 36.65 227.764 36.65 230.214C36.65 235.214 32.45 238.664 26.25 238.664C19.95 238.664 15.75 235.064 15.75 230.064C15.75 227.964 16.7 226.264 18.15 224.664L15.15 222.364C13.4 224.264 11.95 226.764 11.95 230.314C11.95 237.264 17.15 243.364 26.25 243.364C35.2 243.364 40.45 237.864 40.45 230.664Z" fill="#A0A0A0"/>
<path d="M40.45 201.594C40.45 194.944 35.2 189.044 26.25 189.044C17.15 189.044 11.95 194.944 11.95 201.594C11.95 208.294 17.15 214.194 26.25 214.194C35.2 214.194 40.45 208.294 40.45 201.594ZM36.65 201.594C36.65 206.344 32.45 209.494 26.25 209.494C19.95 209.494 15.75 206.344 15.75 201.594C15.75 196.894 19.95 193.744 26.25 193.744C32.45 193.744 36.65 196.894 36.65 201.594Z" fill="#A0A0A0"/>
<path d="M39.75 176.822L39.75 172.272L20.05 172.272C17.3 169.822 15.9 167.522 15.9 165.472C15.9 161.972 18.05 160.372 23.15 160.372L39.75 160.372L39.75 155.822L20.05 155.822C17.3 153.272 15.9 151.122 15.9 149.022C15.9 145.522 18.05 143.922 23.15 143.922L39.75 143.922L39.75 139.372L22.55 139.372C15.65 139.372 11.95 142.072 11.95 147.622C11.95 150.922 14.1 153.772 17.1 156.622C13.9 157.672 11.95 159.922 11.95 164.072C11.95 167.322 14 170.172 16.55 172.522L16.55 172.672L12.6 173.122L12.6 176.822L39.75 176.822Z" fill="#A0A0A0"/>
<path d="M51.2 125.533L51.2 120.983L42.05 120.983L37.3 121.083C39.3 118.633 40.45 116.083 40.45 113.633C40.45 107.383 35.05 101.833 25.8 101.833C17.4 101.833 11.95 105.583 11.95 112.633C11.95 115.783 13.7 118.783 15.75 121.233L15.75 121.383L12.6 121.833L12.6 125.533L51.2 125.533ZM36.6 114.333C36.6 116.133 35.85 118.533 33.8 120.983L19.5 120.983C17.05 118.333 15.75 116.033 15.75 113.733C15.75 108.583 19.8 106.533 25.85 106.533C32.55 106.533 36.6 109.883 36.6 114.333Z" fill="#A0A0A0"/>
<path d="M40.45 84.2047C40.45 80.8547 38.7 77.8047 36.55 75.2547L36.55 75.0547L39.75 74.6547L39.75 70.9047L23.1 70.9047C16.35 70.9047 11.95 73.7047 11.95 80.3547C11.95 84.7047 13.85 88.5047 15.45 91.0047L18.65 89.2047C17.2 87.1047 15.7 84.2547 15.7 81.0547C15.7 76.6047 19.05 75.5047 22.55 75.5047C23.85 87.0547 26.8 92.1547 32.7 92.1547C37.6 92.1547 40.45 88.7547 40.45 84.2047ZM36.75 82.9547C36.75 85.6047 35.5 87.7047 32.4 87.7047C28.9 87.7047 26.65 84.6547 25.6 75.5047L33.15 75.5047C35.5 78.1047 36.75 80.3047 36.75 82.9547Z" fill="#A0A0A0"/>
<path d="M39.75 57.2809L39.75 52.7308L20.05 52.7308C17.35 50.0308 15.9 48.0809 15.9 45.3309C15.9 41.7309 18.05 40.1808 23.15 40.1808L39.75 40.1808L39.75 35.5809L22.55 35.5809C15.65 35.5809 11.95 38.1808 11.95 43.8809C11.95 47.6309 14 50.4308 16.55 52.9808L16.55 53.1309L12.6 53.5809L12.6 57.2809L39.75 57.2809Z" fill="#A0A0A0"/>
<path d="M51.5 21.3633C51.5 15.9133 47.4 13.1133 42.05 11.2133L12.6 0.963256L12.6 5.41327L27.7 10.3133C30.15 11.0133 32.85 11.8133 35.35 12.5633L35.35 12.8133C32.85 13.7133 30.1 14.6133 27.7 15.4633L12.6 21.0133L12.6 25.7133L39.8 14.8133L41.85 15.4133C45.2 16.5633 47.7 18.5133 47.7 21.5633C47.7 22.3133 47.5 23.1133 47.3 23.6133L50.95 24.5133C51.3 23.6633 51.5 22.6133 51.5 21.3633Z" fill="#A0A0A0"/>
</svg>
